<svg xmlns="http://www.w3.org/2000/svg" viewBox="0 0 333.33 350.5"><title>logo-sur-les-murs-noir</title><path d="M153.2,5.77,94.89,135.65H72.53L27.59,39.72v51.4H5.26V5.77H36.32l48.23,98.9,43-98.9Zm11.57,83.78v46.1h-24.4V89.55Z"/><path d="M164.06,90.56V5.77h24V90.56Zm39.08,23.75a31.73,31.73,0,0,0,14.26,3.16q14.47,0,21.91-7.88t7.45-21.81v-82h26.05V89.64a46.87,46.87,0,0,1-4.24,20.41,43.28,43.28,0,0,1-11.68,15,51.46,51.46,0,0,1-17.58,9.28,73.39,73.39,0,0,1-21.91,3.15A67.61,67.61,0,0,1,198,134.73Z"/><path d="M5.26,232.93V147.39H63a54.75,54.75,0,0,1,18.91,3.07,43.3,43.3,0,0,1,14.28,8.35,35.38,35.38,0,0,1,9,12.43,37.94,37.94,0,0,1,3.1,15.3q0,14.11-8.67,24.13t-24.4,13.54l33.07,53.25h-28L48.72,225.7H31.32v7.23Zm52.22-26q11.82,0,18.26-5.47t6.44-14.94q0-9.45-6.44-14.93t-18.26-5.47H31.32V207Z"/><path d="M199.2,256.28a37.79,37.79,0,0,0,6.1,1.76,36.71,36.71,0,0,0,7.35.65q13.85,0,20.25-5.1a16,16,0,0,0,6.41-13.08,13.22,13.22,0,0,0-4.14-9.56q-4.12-4.17-16.12-6.77L199,219.54q-16.35-4.46-25.64-12.8t-9.3-23a31.24,31.24,0,0,1,3.82-14.94,40.78,40.78,0,0,1,10.33-12.43,51.67,51.67,0,0,1,15.41-8.44,56.5,56.5,0,0,1,19-3.16q12.39,0,21.29,3.25a49.24,49.24,0,0,1,14.68,8.08,33,33,0,0,1,8.68,10.66,33.92,33.92,0,0,1,3.51,10.86l-20.05,6.12a23.75,23.75,0,0,0-2.48-6.4,23.25,23.25,0,0,0-5.27-6.4,28.25,28.25,0,0,0-8.48-4.92,33,33,0,0,0-11.88-1.95,31.74,31.74,0,0,0-10.24,1.58,27.8,27.8,0,0,0-8,4.09,19.13,19.13,0,0,0-5.16,5.74,13.16,13.16,0,0,0-1.86,6.59q0,6.87,3.92,10.3t12.82,6.4l20.06,4.45q18.81,3.34,28.64,12.9A30.87,30.87,0,0,1,262.68,239a35.41,35.41,0,0,1-12.51,27,48.23,48.23,0,0,1-15.72,8.81,65,65,0,0,1-21.8,3.34,76.41,76.41,0,0,1-13.45-1.11Z"/><path d="M48.93,337.72a4.53,4.53,0,0,1-2.39,4,11.7,11.7,0,0,1-6.49,1.59,11.91,11.91,0,0,1-6.53-1.59,4.57,4.57,0,0,1-2.39-4V327.08h2.6v10a3.11,3.11,0,0,0,1.62,2.82,9.12,9.12,0,0,0,4.7,1,9,9,0,0,0,4.68-1,3.11,3.11,0,0,0,1.6-2.82v-10h2.6Z"/><path d="M75.71,342.8h-3l-4.25-6H60.48v6h-2.6V327.08h12.4a5.41,5.41,0,0,1,3.88,1.34A4.7,4.7,0,0,1,75.58,332a4.51,4.51,0,0,1-1.16,3.22,4.94,4.94,0,0,1-2.93,1.43Zm-5.82-8.34c2,0,3-.81,3-2.43s-1.08-2.6-3.25-2.6H60.48v5Z"/><path d="M108.62,342.8H93.88V327.08h2.61v13.38h12.13Z"/><path d="M132,342.8H115.49V327.08h15.85v2.35H118.09v4h9.21v2.35h-9.21v4.65H132Z"/><path d="M153.46,330.77a15.6,15.6,0,0,0-7.12-1.78,9.4,9.4,0,0,0-3.69.57c-.85.37-1.28.89-1.28,1.56s.46,1.2,1.37,1.52a12.84,12.84,0,0,0,3.19.48c2.17.14,3.6.26,4.3.34a9.44,9.44,0,0,1,4.36,1.46,3.55,3.55,0,0,1,1.41,3,4.29,4.29,0,0,1-2.21,3.86,12.12,12.12,0,0,1-6.36,1.37q-6,0-9.36-2.65l1.43-1.89a14.92,14.92,0,0,0,7.95,2.26,9.73,9.73,0,0,0,4.28-.76,2.23,2.23,0,0,0,1.45-2c0-1-.64-1.66-1.91-2a42.78,42.78,0,0,0-5.38-.54,15.62,15.62,0,0,1-5.45-1,3.16,3.16,0,0,1-1.83-3.06,3.94,3.94,0,0,1,2.08-3.5,11.18,11.18,0,0,1,5.85-1.28,14.84,14.84,0,0,1,8.51,2.32Z"/><path d="M195.79,342.8h-2.61V330h-.07L185,340.2,176.85,330h-.06V342.8h-2.61V327.08h3.26l7.53,9.5,7.57-9.5h3.25Z"/><path d="M222.54,337.72a4.55,4.55,0,0,1-2.39,4,11.72,11.72,0,0,1-6.49,1.59,12,12,0,0,1-6.54-1.59,4.59,4.59,0,0,1-2.39-4V327.08h2.61v10a3.11,3.11,0,0,0,1.62,2.82,11.71,11.71,0,0,0,9.38,0,3.12,3.12,0,0,0,1.59-2.82v-10h2.61Z"/><path d="M249.31,342.8h-3l-4.26-6h-7.93v6h-2.61V327.08h12.4a5.44,5.44,0,0,1,3.89,1.34,4.73,4.73,0,0,1,1.41,3.61,4.5,4.5,0,0,1-1.15,3.22,5,5,0,0,1-2.93,1.43Zm-5.82-8.34c2,0,3-.81,3-2.43s-1.09-2.6-3.26-2.6h-9.16v5Z"/><path d="M20.83,330.83a15.48,15.48,0,0,0-7.12-1.78,9.43,9.43,0,0,0-3.69.56c-.85.38-1.28.9-1.28,1.56s.46,1.21,1.37,1.52a12.38,12.38,0,0,0,3.19.48c2.17.15,3.6.26,4.3.35A9.33,9.33,0,0,1,22,335a3.57,3.57,0,0,1,1.41,3,4.29,4.29,0,0,1-2.21,3.87,12.21,12.21,0,0,1-6.36,1.37c-4,0-7.13-.89-9.36-2.65l1.43-1.89a15,15,0,0,0,8,2.26,9.72,9.72,0,0,0,4.28-.77,2.23,2.23,0,0,0,1.45-2c0-1-.64-1.67-1.91-2a40.07,40.07,0,0,0-5.38-.55,15.62,15.62,0,0,1-5.45-1A3.16,3.16,0,0,1,6,331.52,3.91,3.91,0,0,1,8.06,328a11.08,11.08,0,0,1,5.85-1.29,14.85,14.85,0,0,1,8.51,2.33Z"/><path d="M271,330.83a15.51,15.51,0,0,0-7.12-1.78,9.39,9.39,0,0,0-3.69.56q-1.29.57-1.29,1.56c0,.7.46,1.21,1.37,1.52a12.45,12.45,0,0,0,3.19.48c2.18.15,3.61.26,4.3.35a9.38,9.38,0,0,1,4.37,1.45,3.57,3.57,0,0,1,1.41,3,4.31,4.31,0,0,1-2.21,3.87,12.23,12.23,0,0,1-6.37,1.37c-4,0-7.13-.89-9.36-2.65l1.44-1.89A15,15,0,0,0,265,341a9.67,9.67,0,0,0,4.27-.77,2.24,2.24,0,0,0,1.46-2c0-1-.64-1.67-1.91-2a40.31,40.31,0,0,0-5.39-.55,15.68,15.68,0,0,1-5.45-1,3.17,3.17,0,0,1-1.82-3.06,3.92,3.92,0,0,1,2.07-3.49,11.08,11.08,0,0,1,5.85-1.29,14.8,14.8,0,0,1,8.51,2.33Z"/><path d="M330,41.76a20.22,20.22,0,0,1-40.44,0c0-10.92,9-19.68,20.28-19.68S330,30.84,330,41.76Zm-35.4,0c0,8.76,6.48,15.72,15.36,15.72,8.64,0,15-7,15-15.6S318.56,26,309.8,26,294.56,33.12,294.56,41.76Zm12.12,10.32h-4.56V32.4a39.86,39.86,0,0,1,7.56-.6c3.72,0,5.4.6,6.84,1.44a5.46,5.46,0,0,1,1.92,4.32c0,2.16-1.68,3.84-4.08,4.56v.24c1.92.72,3,2.16,3.6,4.8.6,3,1,4.2,1.44,4.92h-4.92c-.6-.72-1-2.52-1.56-4.8-.36-2.16-1.56-3.12-4.08-3.12h-2.16Zm.12-11.16H309c2.52,0,4.56-.84,4.56-2.88,0-1.8-1.32-3-4.2-3a10.92,10.92,0,0,0-2.52.24Z"/></svg>